<svg xmlns="http://www.w3.org/2000/svg" width="2200" height="973.474" viewBox="0 0 2200 973.474"><path fill-rule="evenodd" clip-rule="evenodd" fill="#FFF" d="M0 7.248h2190.013v186.287H365.759v754.237H179.472V193.536H0V7.248z"/><path fill-rule="evenodd" clip-rule="evenodd" fill="#FFF" d="M612.249 249.195c109.328-1.271 188.854 20.649 213.549 103.367 8.287 27.757 3.408 111.318 3.408 111.318l-159.026 1.136s-1.219-59.948-1.136-79.513c-2.999-3.999-3.761-9.629-6.815-13.631-4.802-6.29-26.695-15.837-37.485-7.951-9.182 2.576-14.733 11.243-17.039 20.446v23.854c-6.122 28.603 2.523 65.817 18.174 77.241 15.229 11.116 31.619 19.398 47.708 29.533 26.937 16.969 53.668 36.381 79.513 54.523 26.451 18.567 51.159 36.826 68.154 64.746 13.63 22.391 19.361 51.928 26.126 80.649 2.825 11.991-.479 23.422 2.272 36.349 4.185 19.667.142 65.89-4.544 82.921-7.361 26.753-17.226 49.865-31.805 69.29-35.803 47.704-148.686 71.618-230.587 48.844-63.752-17.728-111.261-48.1-129.492-111.318-13.093-45.399-4.544-136.308-4.544-136.308l154.482-1.136s1.136 74.351 1.136 109.046c7.434 11.52 5.717 23.447 18.174 31.805 10.509 7.051 26.728 4.265 36.349-1.136 6.059-3.401 11.943-7.244 14.767-13.631 8.533-19.302 4.847-87.695-2.272-104.503-10.14-23.94-59.679-50.4-81.785-65.882-24.139-16.906-47.534-36.469-71.562-53.387-19.594-13.796-38.988-26.567-52.251-46.572-12.063-18.194-17.828-41.792-23.854-65.882l-1.136-15.903c-2.824-12.736-6.843-43.215-3.408-59.067l5.68-44.3c7.957-28.828 18.445-53.014 34.077-73.833 19.003-25.309 51.842-36.48 87.464-45.436l47.708-5.679zm1568.676 121.541c-25.478-79.751-108.081-120.701-215.821-119.269-5.271 3.283-14.733.682-21.582 2.272-12.12 2.647-24.229 5.305-36.349 7.951-52.058 17.038-97.71 46.833-118.133 95.415-9.178 21.832-7.951 52.797-7.951 84.056v306.693c0 30.624-2.715 65.644 5.679 88.6 18.208 49.798 60.203 78.059 110.182 96.551 13.858 5.123 30.397 8.724 46.572 12.495 7.19.375 14.392.761 21.582 1.136 8.042 1.749 25.399 3.249 35.213 1.136 18.447-3.964 37.621-3.646 54.523-9.087 49.65-15.993 97.608-43.698 118.134-88.6 11.393-24.922 11.359-57.829 11.359-95.415V454.792c0-27.409 3.68-61.872-3.408-84.056zm-193.102 456.631c-5.793 1.568-11.756-1.079-14.767-2.272-27.193-10.791-18.174-62.077-18.174-98.823v-310.1c0-10.121-1.295-22.559 2.272-29.533 4.101-8.008 12.438-9.451 19.31-14.767 42.914-.193 32.941 45.186 32.941 86.328v264.664c0 38.814 9.836 95.972-21.582 104.503zm-767.868-563.406l-263.529 1.136-101.094 680.404 187.423-1.136 11.359-122.677h68.154l11.359 123.813h186.287l-99.959-681.54zM1065.473 704.69l21.582-224.908 22.718 224.908h-44.3zm224.908-440.729h186.287l46.572 465.718 44.3-464.583 187.423-1.136-101.095 680.403-263.528 1.136-99.959-681.538z"/></svg>