<?xml version="1.0" encoding="utf-8"?>
<!-- Generator: Adobe Illustrator 17.0.0, SVG Export Plug-In . SVG Version: 6.00 Build 0)  -->
<!DOCTYPE svg PUBLIC "-//W3C//DTD SVG 1.1//EN" "http://www.w3.org/Graphics/SVG/1.1/DTD/svg11.dtd">
<svg version="1.1" id="Laag_1" xmlns="http://www.w3.org/2000/svg" xmlns:xlink="http://www.w3.org/1999/xlink" x="0px" y="0px"
	 width="2200px" height="973.474px" viewBox="0 0 2200 973.474" enable-background="new 0 0 2200 973.474" xml:space="preserve">
<path fill-rule="evenodd" clip-rule="evenodd" fill="#FFFFFF" d="M0,7.248h2190.013v186.287H365.759v754.237H179.472V193.536H0
	V7.248z"/>
<path fill-rule="evenodd" clip-rule="evenodd" fill="#FFFFFF" d="M612.249,249.195c109.328-1.271,188.854,20.649,213.549,103.367
	c8.287,27.757,3.408,111.318,3.408,111.318l-159.026,1.136c0,0-1.219-59.948-1.136-79.513c-2.999-3.999-3.761-9.629-6.815-13.631
	c-4.802-6.29-26.695-15.837-37.485-7.951c-9.182,2.576-14.733,11.243-17.039,20.446c0,7.951,0,15.903,0,23.854
	c-6.122,28.603,2.523,65.817,18.174,77.241c15.229,11.116,31.619,19.398,47.708,29.533c26.937,16.969,53.668,36.381,79.513,54.523
	c26.451,18.567,51.159,36.826,68.154,64.746c13.63,22.391,19.361,51.928,26.126,80.649c2.825,11.991-0.479,23.422,2.272,36.349
	c4.185,19.667,0.142,65.89-4.544,82.921c-7.361,26.753-17.226,49.865-31.805,69.29c-35.803,47.704-148.686,71.618-230.587,48.844
	c-63.752-17.728-111.261-48.1-129.492-111.318c-13.093-45.399-4.544-136.308-4.544-136.308l154.482-1.136
	c0,0,1.136,74.351,1.136,109.046c7.434,11.52,5.717,23.447,18.174,31.805c10.509,7.051,26.728,4.265,36.349-1.136
	c6.059-3.401,11.943-7.244,14.767-13.631c8.533-19.302,4.847-87.695-2.272-104.503c-10.14-23.94-59.679-50.4-81.785-65.882
	c-24.139-16.906-47.534-36.469-71.562-53.387c-19.594-13.796-38.988-26.567-52.251-46.572
	c-12.063-18.194-17.828-41.792-23.854-65.882c-0.379-5.3-0.757-10.602-1.136-15.903c-2.824-12.736-6.843-43.215-3.408-59.067
	c1.893-14.765,3.787-29.535,5.68-44.3c7.957-28.828,18.445-53.014,34.077-73.833c19.003-25.309,51.842-36.48,87.464-45.436
	C580.443,252.981,596.348,251.088,612.249,249.195z"/>
<path fill-rule="evenodd" clip-rule="evenodd" fill="#FFFFFF" d="M2180.925,370.736c-25.478-79.751-108.081-120.701-215.821-119.269
	c-5.271,3.283-14.733,0.682-21.582,2.272c-12.12,2.647-24.229,5.305-36.349,7.951c-52.058,17.038-97.71,46.833-118.133,95.415
	c-9.178,21.832-7.951,52.797-7.951,84.056v306.693c0,30.624-2.715,65.644,5.679,88.6c18.208,49.798,60.203,78.059,110.182,96.551
	c13.858,5.123,30.397,8.724,46.572,12.495c7.19,0.375,14.392,0.761,21.582,1.136c8.042,1.749,25.399,3.249,35.213,1.136
	c18.447-3.964,37.621-3.646,54.523-9.087c49.65-15.993,97.608-43.698,118.134-88.6c11.393-24.922,11.359-57.829,11.359-95.415
	V454.792C2184.333,427.383,2188.013,392.92,2180.925,370.736z M1987.823,827.367c-5.793,1.568-11.756-1.079-14.767-2.272
	c-27.193-10.791-18.174-62.077-18.174-98.823v-310.1c0-10.121-1.295-22.559,2.272-29.533c4.101-8.008,12.438-9.451,19.31-14.767
	c42.914-0.193,32.941,45.186,32.941,86.328v264.664C2009.405,761.678,2019.241,818.836,1987.823,827.367z"/>
<path fill-rule="evenodd" clip-rule="evenodd" fill="#FFFFFF" d="M1219.955,263.961l-263.529,1.136L855.332,945.501l187.423-1.136
	l11.359-122.677h68.154l11.359,123.813h186.287L1219.955,263.961z M1065.473,704.69l21.582-224.908l22.718,224.908H1065.473z"/>
<path fill-rule="evenodd" clip-rule="evenodd" fill="#FFFFFF" d="M1290.381,263.961h186.287l46.572,465.718l44.3-464.583
	l187.423-1.136l-101.095,680.403l-263.528,1.136L1290.381,263.961z"/>
</svg>
